{"title":"Ant Man and the Wasp 2018 1080p BluRay AC3 5.1 x264 [MW]","magnet":"magnet:?xt=urn:btih:cdf4fa4b65bbfa75f4ae401ca2cde342f2588f00&dn=Ant+Man+and+the+Wasp+2018+1080p+BluRay+AC3+5.1+x264+%5BMW%5D&tr=udp%3A%2F%2Ftracker.leechers-paradise.org%3A6969&tr=udp%3A%2F%2Fzer0day.ch%3A1337&tr=udp%3A%2F%2Fopen.demonii.com%3A1337&tr=udp%3A%2F%2Ftracker.coppersurfer.tk%3A6969&tr=udp%3A%2F%2Fexodus.desync.com%3A6969","uploader":"MFreaky","categoryP":"video","categoryS":"hd___movies","size":"3023158605","seeders":"0","leechers":"0","description":" <a href=\"https://pichub.site/image/EWlaI\" rel=\"nofollow\" target=\"_NEW\">https://pichub.site/image/EWlaI</a> <a href=\"\nhttps://pichub.site/image/EW6zX\" rel=\"nofollow\" target=\"_NEW\">\nhttps://pichub.site/image/EW6zX</a> <a href=\"\nhttps://pichub.site/image/EWP58\" rel=\"nofollow\" target=\"_NEW\">\nhttps://pichub.site/image/EWP58</a> <a href=\"\nhttps://pichub.site/image/EWXqJ\" rel=\"nofollow\" target=\"_NEW\">\nhttps://pichub.site/image/EWXqJ</a> <a href=\"\nhttps://pichub.site/image/EW30h\" rel=\"nofollow\" target=\"_NEW\">\nhttps://pichub.site/image/EW30h</a> <a href=\"\nhttps://pichub.site/image/EWsw5\" rel=\"nofollow\" target=\"_NEW\">\nhttps://pichub.site/image/EWsw5</a>\r\n\r\nIMDB <a href=\"\nhttps://www.imdb.com/title/tt5095030/\" rel=\"nofollow\" target=\"_NEW\">\nhttps://www.imdb.com/title/tt5095030/</a>\r\n\r\nVideo\r\nFormat                                   : AVC\r\nFormat/Info                              : Advanced Video Codec\r\nFormat profile                           : High@L4.1\r\nFormat settings                          : CABAC / 4 Ref Frames\r\nFormat settings, CABAC                   : Yes\r\nFormat settings, RefFrames               : 4 frames\r\nCodec ID                                 : V_MPEG4/ISO/AVC\r\nDuration                                 : 1 h 58 min\r\nBit rate                                 : 3 000 kb/s\r\nWidth                                    : 1 920 pixels\r\nHeight                                   : 804 pixels\r\nDisplay aspect ratio                     : 2.40:1\r\nFrame rate mode                          : Constant\r\nFrame rate                               : 23.976 (24000/1001) FPS\r\nColor space                              : YUV\r\nChroma subsampling                       : 4:2:0\r\nBit depth                                : 8 bits\r\nBits/(Pixel*Frame)                       : 0.081\r\nStream size                              : 2.44 GiB (87%)\r\nWriting library                          : x264 core 155 r2901 7d0ff22\r\n\r\nAudio\r\nFormat                                   : AC-3\r\nFormat/Info                              : Audio Coding 3\r\nCodec ID                                 : A_AC3\r\nDuration                                 : 1 h 58 min\r\nBit rate mode                            : Constant\r\nBit rate                                 : 448 kb/s\r\nChannel(s)                               : 6 channels\r\nChannel positions                        : Front: L C R, Side: L R, LFE\r\nSampling rate                            : 48.0 kHz\r\nFrame rate                               : 31.250 FPS (1536 SPF)\r\nBit depth                                : 16 bits\r\nStream size                              : 378 MiB (13%)\r\nLanguage                                 : English","last_updated":"2018-10-05T12:35:25.554Z","parsed":{"xt":"urn:btih:cdf4fa4b65bbfa75f4ae401ca2cde342f2588f00","dn":"Ant Man and the Wasp 2018 1080p BluRay AC3 5.1 x264 [MW]","tr":["udp://exodus.desync.com:6969","udp://open.demonii.com:1337","udp://tracker.coppersurfer.tk:6969","udp://tracker.leechers-paradise.org:6969","udp://zer0day.ch:1337"],"infoHash":"cdf4fa4b65bbfa75f4ae401ca2cde342f2588f00","infoHashBuffer":{"type":"Buffer","data":[205,244,250,75,101,187,250,117,244,174,64,28,162,205,227,66,242,88,143,0]},"name":"Ant Man and the Wasp 2018 1080p BluRay AC3 5.1 x264 [MW]","announce":["udp://exodus.desync.com:6969","udp://open.demonii.com:1337","udp://tracker.coppersurfer.tk:6969","udp://tracker.leechers-paradise.org:6969","udp://zer0day.ch:1337"],"urlList":[]}}